STARTFONT 2.1
FONT -FontForge-status-Medium-R-Normal--18-170-75-75-P-108-ISO8859-1
SIZE 17 75 75
FONTBOUNDINGBOX 20 19 -2 -4
COMMENT "Generated by fontforge, http://fontforge.sourceforge.net"
COMMENT "Created by m,,, with FontForge 2.0 (http://fontforge.sf.net)"
STARTPROPERTIES 31
FOUNDRY "FontForge"
FAMILY_NAME "status"
WEIGHT_NAME "Medium"
SLANT "R"
SETWIDTH_NAME "Normal"
ADD_STYLE_NAME ""
PIXEL_SIZE 18
POINT_SIZE 170
RESOLUTION_X 75
RESOLUTION_Y 75
SPACING "P"
AVERAGE_WIDTH 108
CHARSET_REGISTRY "ISO8859"
CHARSET_ENCODING "1"
FONTNAME_REGISTRY ""
CHARSET_COLLECTIONS "ISOLatin1Encoding"
FONT_NAME "status"
FACE_NAME "status"
FONT_VERSION "001.000"
FONT_ASCENT 14
FONT_DESCENT 4
UNDERLINE_POSITION -2
UNDERLINE_THICKNESS 1
X_HEIGHT 8
CAP_HEIGHT 11
RAW_ASCENT 800
RAW_DESCENT 200
NORM_SPACE 10
FIGURE_WIDTH 10
AVG_LOWERCASE_WIDTH 103
AVG_UPPERCASE_WIDTH 131
ENDPROPERTIES
CHARS 144
STARTCHAR space
ENCODING 32
SWIDTH 555 0
DWIDTH 10 0
BBX 1 1 0 0
BITMAP
00
ENDCHAR
STARTCHAR exclam
ENCODING 33
SWIDTH 1000 0
DWIDTH 5 0
BBX 1 12 2 0
BITMAP
80
80
80
80
80
80
80
80
00
00
80
80
ENDCHAR
STARTCHAR quotedbl
ENCODING 34
SWIDTH 1000 0
DWIDTH 8 0
BBX 4 5 1 9
BITMAP
90
90
90
90
90
ENDCHAR
STARTCHAR numbersign
ENCODING 35
SWIDTH 1000 0
DWIDTH 12 0
BBX 10 12 1 0
BITMAP
1080
1080
1080
FFC0
2100
2100
2100
2100
FFC0
4200
4200
4200
ENDCHAR
STARTCHAR dollar
ENCODING 36
SWIDTH 1000 0
DWIDTH 10 0
BBX 8 16 1 -2
BITMAP
10
10
3C
42
80
80
40
30
0C
02
01
01
82
7C
10
10
ENDCHAR
STARTCHAR percent
ENCODING 37
SWIDTH 1000 0
DWIDTH 15 0
BBX 13 12 1 0
BITMAP
7020
8840
8880
8880
8900
7200
0270
0488
0888
0888
1088
2070
ENDCHAR
STARTCHAR ampersand
ENCODING 38
SWIDTH 1000 0
DWIDTH 12 0
BBX 10 12 1 0
BITMAP
3C00
4200
4200
4200
2400
3800
4840
8480
8280
8100
4280
3C40
ENDCHAR
STARTCHAR quotesingle
ENCODING 39
SWIDTH 1000 0
DWIDTH 4 0
BBX 1 5 1 9
BITMAP
80
80
80
80
80
ENDCHAR
STARTCHAR parenleft
ENCODING 40
SWIDTH 1000 0
DWIDTH 6 0
BBX 4 17 1 -3
BITMAP
10
20
20
40
40
80
80
80
80
80
80
80
40
40
20
20
10
ENDCHAR
STARTCHAR parenright
ENCODING 41
SWIDTH 1000 0
DWIDTH 6 0
BBX 4 17 1 -3
BITMAP
80
40
40
20
20
10
10
10
10
10
10
10
20
20
40
40
80
ENDCHAR
STARTCHAR asterisk
ENCODING 42
SWIDTH 1000 0
DWIDTH 9 0
BBX 7 7 1 5
BITMAP
10
10
92
7C
28
28
44
ENDCHAR
STARTCHAR plus
ENCODING 43
SWIDTH 1000 0
DWIDTH 10 0
BBX 7 7 1 2
BITMAP
10
10
10
FE
10
10
10
ENDCHAR
STARTCHAR comma
ENCODING 44
SWIDTH 1000 0
DWIDTH 4 0
BBX 2 5 0 -3
BITMAP
40
40
40
40
80
ENDCHAR
STARTCHAR hyphen
ENCODING 45
SWIDTH 1000 0
DWIDTH 6 0
BBX 4 1 1 5
BITMAP
F0
ENDCHAR
STARTCHAR period
ENCODING 46
SWIDTH 1000 0
DWIDTH 4 0
BBX 1 2 1 0
BITMAP
80
80
ENDCHAR
STARTCHAR slash
ENCODING 47
SWIDTH 1000 0
DWIDTH 7 0
BBX 7 17 0 -3
BITMAP
02
04
04
04
08
08
08
10
10
10
20
20
20
40
40
40
80
ENDCHAR
STARTCHAR zero
ENCODING 48
SWIDTH 1000 0
DWIDTH 10 0
BBX 8 12 1 0
BITMAP
3C
42
81
81
81
81
81
81
81
81
42
3C
ENDCHAR
STARTCHAR one
ENCODING 49
SWIDTH 1000 0
DWIDTH 10 0
BBX 4 12 2 0
BITMAP
10
30
50
90
10
10
10
10
10
10
10
10
ENDCHAR
STARTCHAR two
ENCODING 50
SWIDTH 1000 0
DWIDTH 10 0
BBX 7 12 1 0
BITMAP
38
44
82
02
02
04
08
10
20
40
80
FE
ENDCHAR
STARTCHAR three
ENCODING 51
SWIDTH 1000 0
DWIDTH 10 0
BBX 8 12 1 0
BITMAP
7C
82
01
01
06
38
06
01
01
01
82
7C
ENDCHAR
STARTCHAR four
ENCODING 52
SWIDTH 1000 0
DWIDTH 10 0
BBX 8 12 1 0
BITMAP
02
06
0A
12
22
22
42
82
FF
02
02
02
ENDCHAR
STARTCHAR five
ENCODING 53
SWIDTH 1000 0
DWIDTH 10 0
BBX 8 12 1 0
BITMAP
7F
40
40
40
40
7C
02
01
01
01
82
7C
ENDCHAR
STARTCHAR six
ENCODING 54
SWIDTH 1000 0
DWIDTH 10 0
BBX 8 12 1 0
BITMAP
0E
30
40
40
80
FC
82
81
81
81
42
3C
ENDCHAR
STARTCHAR seven
ENCODING 55
SWIDTH 1000 0
DWIDTH 10 0
BBX 8 12 1 0
BITMAP
FF
01
02
04
08
08
10
10
10
20
20
20
ENDCHAR
STARTCHAR eight
ENCODING 56
SWIDTH 1000 0
DWIDTH 10 0
BBX 8 12 1 0
BITMAP
3C
42
81
81
42
3C
42
81
81
81
42
3C
ENDCHAR
STARTCHAR nine
ENCODING 57
SWIDTH 1000 0
DWIDTH 10 0
BBX 8 12 1 0
BITMAP
3C
42
81
81
81
41
3F
01
02
02
0C
70
ENDCHAR
STARTCHAR colon
ENCODING 58
SWIDTH 1000 0
DWIDTH 4 0
BBX 1 9 1 0
BITMAP
80
80
00
00
00
00
00
80
80
ENDCHAR
STARTCHAR semicolon
ENCODING 59
SWIDTH 1000 0
DWIDTH 4 0
BBX 2 12 0 -3
BITMAP
40
40
00
00
00
00
00
40
40
40
40
80
ENDCHAR
STARTCHAR less
ENCODING 60
SWIDTH 1000 0
DWIDTH 10 0
BBX 8 9 1 1
BITMAP
01
06
08
30
C0
30
08
06
01
ENDCHAR
STARTCHAR equal
ENCODING 61
SWIDTH 1000 0
DWIDTH 10 0
BBX 8 4 1 4
BITMAP
FF
00
00
FF
ENDCHAR
STARTCHAR greater
ENCODING 62
SWIDTH 1000 0
DWIDTH 10 0
BBX 8 9 1 1
BITMAP
80
60
10
0C
03
0C
10
60
80
ENDCHAR
STARTCHAR question
ENCODING 63
SWIDTH 1000 0
DWIDTH 7 0
BBX 6 12 1 0
BITMAP
78
84
04
04
08
10
20
20
00
00
20
20
ENDCHAR
STARTCHAR at
ENCODING 64
SWIDTH 1000 0
DWIDTH 17 0
BBX 13 14 2 -2
BITMAP
0F80
3060
4010
4790
8888
9088
9088
9088
9088
8890
4760
4000
3000
0F80
ENDCHAR
STARTCHAR A
ENCODING 65
SWIDTH 1000 0
DWIDTH 11 0
BBX 11 12 0 0
BITMAP
0400
0400
0A00
0A00
1100
1100
2080
2080
3F80
4040
4040
8020
ENDCHAR
STARTCHAR B
ENCODING 66
SWIDTH 1000 0
DWIDTH 12 0
BBX 9 12 2 0
BITMAP
FC00
8200
8100
8100
8200
FE00
8100
8080
8080
8080
8100
FE00
ENDCHAR
STARTCHAR C
ENCODING 67
SWIDTH 1000 0
DWIDTH 12 0
BBX 10 12 1 0
BITMAP
0F80
3040
4000
4000
8000
8000
8000
8000
4000
4000
3040
0F80
ENDCHAR
STARTCHAR D
ENCODING 68
SWIDTH 1000 0
DWIDTH 13 0
BBX 10 12 2 0
BITMAP
FC00
8300
8080
8080
8040
8040
8040
8040
8080
8080
8300
FC00
ENDCHAR
STARTCHAR E
ENCODING 69
SWIDTH 1000 0
DWIDTH 10 0
BBX 7 12 2 0
BITMAP
FE
80
80
80
80
FC
80
80
80
80
80
FE
ENDCHAR
STARTCHAR F
ENCODING 70
SWIDTH 1000 0
DWIDTH 10 0
BBX 7 12 2 0
BITMAP
FE
80
80
80
80
FC
80
80
80
80
80
80
ENDCHAR
STARTCHAR G
ENCODING 71
SWIDTH 1000 0
DWIDTH 12 0
BBX 9 12 1 0
BITMAP
1F00
2080
4000
8000
8000
8000
8080
8080
8080
4080
2080
1F80
ENDCHAR
STARTCHAR H
ENCODING 72
SWIDTH 1000 0
DWIDTH 13 0
BBX 9 12 2 0
BITMAP
8080
8080
8080
8080
8080
FF80
8080
8080
8080
8080
8080
8080
ENDCHAR
STARTCHAR I
ENCODING 73
SWIDTH 1000 0
DWIDTH 5 0
BBX 1 12 2 0
BITMAP
80
80
80
80
80
80
80
80
80
80
80
80
ENDCHAR
STARTCHAR J
ENCODING 74
SWIDTH 1000 0
DWIDTH 9 0
BBX 7 12 0 0
BITMAP
02
02
02
02
02
02
02
02
02
02
84
78
ENDCHAR
STARTCHAR K
ENCODING 75
SWIDTH 1000 0
DWIDTH 11 0
BBX 9 12 2 0
BITMAP
8100
8200
8C00
9000
A000
C000
A000
9800
8400
8200
8100
8080
ENDCHAR
STARTCHAR L
ENCODING 76
SWIDTH 1000 0
DWIDTH 9 0
BBX 7 12 2 0
BITMAP
80
80
80
80
80
80
80
80
80
80
80
FE
ENDCHAR
STARTCHAR M
ENCODING 77
SWIDTH 1000 0
DWIDTH 15 0
BBX 13 12 1 0
BITMAP
4010
6030
5030
5050
4850
4890
8888
8508
8508
8208
8008
8008
ENDCHAR
STARTCHAR N
ENCODING 78
SWIDTH 1000 0
DWIDTH 13 0
BBX 9 12 2 0
BITMAP
8080
C080
A080
9080
9080
8880
8480
8280
8280
8180
8080
8080
ENDCHAR
STARTCHAR O
ENCODING 79
SWIDTH 1000 0
DWIDTH 14 0
BBX 12 12 1 0
BITMAP
0F00
30C0
4020
4020
8010
8010
8010
8010
4020
4020
30C0
0F00
ENDCHAR
STARTCHAR P
ENCODING 80
SWIDTH 1000 0
DWIDTH 11 0
BBX 8 12 2 0
BITMAP
FC
82
81
81
81
81
82
FC
80
80
80
80
ENDCHAR
STARTCHAR Q
ENCODING 81
SWIDTH 1000 0
DWIDTH 14 0
BBX 12 15 1 -3
BITMAP
0F00
30C0
4020
4020
8010
8010
8010
8010
4020
4020
30C0
0F00
0200
0100
00E0
ENDCHAR
STARTCHAR R
ENCODING 82
SWIDTH 1000 0
DWIDTH 11 0
BBX 9 12 2 0
BITMAP
FC00
8200
8100
8100
8100
8200
FC00
8400
8200
8100
8100
8080
ENDCHAR
STARTCHAR S
ENCODING 83
SWIDTH 1000 0
DWIDTH 10 0
BBX 8 12 1 0
BITMAP
3C
42
80
80
40
30
0C
02
01
01
82
7C
ENDCHAR
STARTCHAR T
ENCODING 84
SWIDTH 1000 0
DWIDTH 9 0
BBX 9 12 0 0
BITMAP
FF80
0800
0800
0800
0800
0800
0800
0800
0800
0800
0800
0800
ENDCHAR
STARTCHAR U
ENCODING 85
SWIDTH 1000 0
DWIDTH 13 0
BBX 9 12 2 0
BITMAP
8080
8080
8080
8080
8080
8080
8080
8080
8080
8080
4100
3E00
ENDCHAR
STARTCHAR V
ENCODING 86
SWIDTH 1000 0
DWIDTH 11 0
BBX 11 12 0 0
BITMAP
8020
4040
4040
4040
2080
2080
1100
1100
1100
0A00
0A00
0400
ENDCHAR
STARTCHAR W
ENCODING 87
SWIDTH 1000 0
DWIDTH 17 0
BBX 17 12 0 0
BITMAP
800080
808080
408100
414100
414100
216200
222200
222200
141400
141400
080800
080800
ENDCHAR
STARTCHAR X
ENCODING 88
SWIDTH 1000 0
DWIDTH 10 0
BBX 10 12 0 0
BITMAP
8040
4080
2100
1200
1200
0C00
0C00
1200
2100
2100
4080
8040
ENDCHAR
STARTCHAR Y
ENCODING 89
SWIDTH 1000 0
DWIDTH 11 0
BBX 11 12 0 0
BITMAP
8020
4040
2080
2080
1100
0A00
0400
0400
0400
0400
0400
0400
ENDCHAR
STARTCHAR Z
ENCODING 90
SWIDTH 1000 0
DWIDTH 10 0
BBX 8 12 1 0
BITMAP
FF
01
02
04
08
08
10
20
20
40
80
FF
ENDCHAR
STARTCHAR bracketleft
ENCODING 91
SWIDTH 1000 0
DWIDTH 6 0
BBX 4 17 2 -3
BITMAP
F0
80
80
80
80
80
80
80
80
80
80
80
80
80
80
80
F0
ENDCHAR
STARTCHAR backslash
ENCODING 92
SWIDTH 1000 0
DWIDTH 7 0
BBX 7 17 0 -3
BITMAP
80
40
40
40
20
20
20
10
10
10
08
08
08
04
04
04
02
ENDCHAR
STARTCHAR bracketright
ENCODING 93
SWIDTH 1000 0
DWIDTH 6 0
BBX 4 17 0 -3
BITMAP
F0
10
10
10
10
10
10
10
10
10
10
10
10
10
10
10
F0
ENDCHAR
STARTCHAR asciicircum
ENCODING 94
SWIDTH 1000 0
DWIDTH 10 0
BBX 9 7 1 5
BITMAP
0800
1400
1400
2200
4100
4100
8080
ENDCHAR
STARTCHAR underscore
ENCODING 95
SWIDTH 1000 0
DWIDTH 9 0
BBX 9 1 0 -3
BITMAP
FF80
ENDCHAR
STARTCHAR grave
ENCODING 96
SWIDTH 1000 0
DWIDTH 7 0
BBX 3 3 1 10
BITMAP
80
40
20
ENDCHAR
STARTCHAR a
ENCODING 97
SWIDTH 1000 0
DWIDTH 9 0
BBX 7 9 1 0
BITMAP
7C
02
02
7E
82
82
82
82
7E
ENDCHAR
STARTCHAR b
ENCODING 98
SWIDTH 1000 0
DWIDTH 11 0
BBX 9 14 1 0
BITMAP
8000
8000
8000
8000
8000
BE00
C100
8080
8080
8080
8080
8080
8100
FE00
ENDCHAR
STARTCHAR c
ENCODING 99
SWIDTH 1000 0
DWIDTH 9 0
BBX 7 9 1 0
BITMAP
3E
40
80
80
80
80
80
40
3E
ENDCHAR
STARTCHAR d
ENCODING 100
SWIDTH 1000 0
DWIDTH 11 0
BBX 9 14 1 0
BITMAP
0080
0080
0080
0080
0080
3E80
4180
8080
8080
8080
8080
8080
4080
3F80
ENDCHAR
STARTCHAR e
ENCODING 101
SWIDTH 1000 0
DWIDTH 10 0
BBX 8 9 1 0
BITMAP
3C
42
81
81
FF
80
80
40
3E
ENDCHAR
STARTCHAR f
ENCODING 102
SWIDTH 1000 0
DWIDTH 7 0
BBX 6 14 1 0
BITMAP
3C
40
80
80
80
FC
80
80
80
80
80
80
80
80
ENDCHAR
STARTCHAR g
ENCODING 103
SWIDTH 1000 0
DWIDTH 10 0
BBX 8 12 1 -3
BITMAP
3F
41
81
81
81
81
81
43
3D
01
02
7C
ENDCHAR
STARTCHAR h
ENCODING 104
SWIDTH 1000 0
DWIDTH 10 0
BBX 8 14 1 0
BITMAP
80
80
80
80
80
FC
82
81
81
81
81
81
81
81
ENDCHAR
STARTCHAR i
ENCODING 105
SWIDTH 1000 0
DWIDTH 3 0
BBX 1 13 1 0
BITMAP
80
80
00
00
80
80
80
80
80
80
80
80
80
ENDCHAR
STARTCHAR j
ENCODING 106
SWIDTH 1000 0
DWIDTH 3 0
BBX 4 16 -2 -3
BITMAP
10
10
00
00
10
10
10
10
10
10
10
10
10
10
10
E0
ENDCHAR
STARTCHAR k
ENCODING 107
SWIDTH 1000 0
DWIDTH 9 0
BBX 7 14 1 0
BITMAP
80
80
80
80
80
82
8C
90
A0
C0
B0
88
84
82
ENDCHAR
STARTCHAR l
ENCODING 108
SWIDTH 1000 0
DWIDTH 4 0
BBX 3 14 1 0
BITMAP
80
80
80
80
80
80
80
80
80
80
80
80
80
60
ENDCHAR
STARTCHAR m
ENCODING 109
SWIDTH 1000 0
DWIDTH 15 0
BBX 13 9 1 0
BITMAP
F9E0
8610
8208
8208
8208
8208
8208
8208
8208
ENDCHAR
STARTCHAR n
ENCODING 110
SWIDTH 1000 0
DWIDTH 10 0
BBX 8 9 1 0
BITMAP
FC
82
81
81
81
81
81
81
81
ENDCHAR
STARTCHAR o
ENCODING 111
SWIDTH 1000 0
DWIDTH 11 0
BBX 9 9 1 0
BITMAP
3E00
4100
8080
8080
8080
8080
8080
4100
3E00
ENDCHAR
STARTCHAR p
ENCODING 112
SWIDTH 1000 0
DWIDTH 11 0
BBX 9 12 1 -3
BITMAP
FE00
8100
8080
8080
8080
8080
8080
C100
BE00
8000
8000
8000
ENDCHAR
STARTCHAR q
ENCODING 113
SWIDTH 1000 0
DWIDTH 11 0
BBX 9 12 1 -3
BITMAP
3F80
4080
8080
8080
8080
8080
8080
4180
3E80
0080
0080
0080
ENDCHAR
STARTCHAR r
ENCODING 114
SWIDTH 1000 0
DWIDTH 7 0
BBX 6 9 1 0
BITMAP
FC
80
80
80
80
80
80
80
80
ENDCHAR
STARTCHAR s
ENCODING 115
SWIDTH 1000 0
DWIDTH 8 0
BBX 6 9 1 0
BITMAP
7C
80
80
40
30
08
04
04
F8
ENDCHAR
STARTCHAR t
ENCODING 116
SWIDTH 1000 0
DWIDTH 7 0
BBX 5 12 1 0
BITMAP
80
80
80
F8
80
80
80
80
80
80
80
78
ENDCHAR
STARTCHAR u
ENCODING 117
SWIDTH 1000 0
DWIDTH 10 0
BBX 8 9 1 0
BITMAP
81
81
81
81
81
81
81
41
3F
ENDCHAR
STARTCHAR v
ENCODING 118
SWIDTH 1000 0
DWIDTH 9 0
BBX 9 9 0 0
BITMAP
8080
4100
4100
4100
2200
2200
1400
1400
0800
ENDCHAR
STARTCHAR w
ENCODING 119
SWIDTH 1000 0
DWIDTH 13 0
BBX 13 9 0 0
BITMAP
8208
8208
4510
4510
4510
28A0
28A0
1040
1040
ENDCHAR
STARTCHAR x
ENCODING 120
SWIDTH 1000 0
DWIDTH 9 0
BBX 9 9 0 0
BITMAP
8080
4100
2200
1400
0800
1400
2200
4100
8080
ENDCHAR
STARTCHAR y
ENCODING 121
SWIDTH 1000 0
DWIDTH 9 0
BBX 9 12 0 -3
BITMAP
8080
4100
4100
2200
2200
1400
1400
0800
0800
0800
1000
E000
ENDCHAR
STARTCHAR z
ENCODING 122
SWIDTH 1000 0
DWIDTH 8 0
BBX 6 9 1 0
BITMAP
FC
04
08
10
20
20
40
80
FC
ENDCHAR
STARTCHAR braceleft
ENCODING 123
SWIDTH 1000 0
DWIDTH 6 0
BBX 5 17 0 -3
BITMAP
18
20
20
20
20
20
20
20
C0
20
20
20
20
20
20
20
18
ENDCHAR
STARTCHAR bar
ENCODING 124
SWIDTH 1000 0
DWIDTH 5 0
BBX 1 17 2 -3
BITMAP
80
80
80
80
80
80
80
80
80
80
80
80
80
80
80
80
80
ENDCHAR
STARTCHAR braceright
ENCODING 125
SWIDTH 1000 0
DWIDTH 6 0
BBX 5 17 1 -3
BITMAP
C0
20
20
20
20
20
20
20
18
20
20
20
20
20
20
20
C0
ENDCHAR
STARTCHAR asciitilde
ENCODING 126
SWIDTH 1000 0
DWIDTH 10 0
BBX 8 3 1 3
BITMAP
61
99
86
ENDCHAR
STARTCHAR uni007F
ENCODING 127
SWIDTH 1000 0
DWIDTH 18 0
BBX 1 1 0 0
BITMAP
00
ENDCHAR
STARTCHAR uni00A0
ENCODING 160
SWIDTH 555 0
DWIDTH 10 0
BBX 1 1 0 0
BITMAP
00
ENDCHAR
STARTCHAR copyright
ENCODING 169
SWIDTH 1000 0
DWIDTH 18 0
BBX 1 1 0 0
BITMAP
00
ENDCHAR
STARTCHAR degree
ENCODING 176
SWIDTH 1000 0
DWIDTH 6 0
BBX 4 4 1 9
BITMAP
60
90
90
60
ENDCHAR
STARTCHAR Agrave
ENCODING 192
SWIDTH 1000 0
DWIDTH 17 0
BBX 15 15 1 -2
BITMAP
07C0
1830
3E08
5D04
5F84
BF06
BE02
9A06
880E
840E
4384
43C4
23C8
19F0
07C0
ENDCHAR
STARTCHAR Aacute
ENCODING 193
SWIDTH 944 0
DWIDTH 17 0
BBX 15 14 1 -1
BITMAP
3800
7CF0
7DF8
7DF8
39F8
11F8
7CF0
FE60
FDF8
FBFC
FBFC
07FE
07FE
07FE
ENDCHAR
STARTCHAR Acircumflex
ENCODING 194
SWIDTH 888 0
DWIDTH 16 0
BBX 14 12 1 -1
BITMAP
0720
03F0
01E0
01F0
03FC
0718
0E10
1C00
3800
7000
E000
C000
ENDCHAR
STARTCHAR Atilde
ENCODING 195
SWIDTH 722 0
DWIDTH 13 0
BBX 11 13 1 -1
BITMAP
FF00
8180
B940
81E0
BC20
8020
B7A0
8020
BDA0
8020
BBA0
8020
FFE0
ENDCHAR
STARTCHAR Adieresis
ENCODING 196
SWIDTH 1000 0
DWIDTH 11 0
BBX 11 14 0 0
BITMAP
1100
1100
0400
0400
0A00
0A00
1100
1100
2080
2080
3F80
4040
4040
8020
ENDCHAR
STARTCHAR Aring
ENCODING 197
SWIDTH 833 0
DWIDTH 15 0
BBX 13 13 1 -1
BITMAP
E200
E300
E380
E3C0
E3E0
E3F0
E3F8
E3F0
E3E0
E3C0
E380
E300
E200
ENDCHAR
STARTCHAR AE
ENCODING 198
SWIDTH 1000 0
DWIDTH 18 0
BBX 16 13 1 -1
BITMAP
7FFE
FFFF
FFFF
8001
8001
8801
8401
8201
8401
8801
8001
8001
7FFE
ENDCHAR
STARTCHAR Ccedilla
ENCODING 199
SWIDTH 833 0
DWIDTH 15 0
BBX 13 13 1 -1
BITMAP
A028
E038
A028
FFF8
A028
E038
A028
E038
A028
FFF8
A028
E038
A028
ENDCHAR
STARTCHAR Egrave
ENCODING 200
SWIDTH 1000 0
DWIDTH 18 0
BBX 12 2 3 0
BITMAP
C630
C630
ENDCHAR
STARTCHAR Eacute
ENCODING 201
SWIDTH 944 0
DWIDTH 17 0
BBX 15 11 1 0
BITMAP
FF7E
FF7E
FF7E
FF00
FF7E
007E
FF7E
FF00
FF7E
FF7E
FF7E
ENDCHAR
STARTCHAR Ecircumflex
ENCODING 202
SWIDTH 944 0
DWIDTH 17 0
BBX 15 11 1 0
BITMAP
FFE0
FFE0
FFE0
FFE0
FFEE
FFEE
FFEE
000E
03FE
03FE
03FE
ENDCHAR
STARTCHAR Edieresis
ENCODING 203
SWIDTH 944 0
DWIDTH 17 0
BBX 15 11 1 0
BITMAP
FFFE
FFFE
FFFE
FFFE
FFFE
FFFE
FFFE
FFFE
FFFE
FFFE
FFFE
ENDCHAR
STARTCHAR Idieresis
ENCODING 207
SWIDTH 833 0
DWIDTH 15 0
BBX 13 13 1 -1
BITMAP
EDB8
EDB8
C018
1FC0
DFD8
DFD8
1FC0
DFD8
DFD8
1FC0
C018
EDB8
EDB8
ENDCHAR
STARTCHAR Eth
ENCODING 208
SWIDTH 611 0
DWIDTH 11 0
BBX 9 13 1 -2
BITMAP
1C00
1C00
1C00
1C00
1C00
1C00
1C00
1C00
FF80
7F00
3E00
1C00
0800
ENDCHAR
STARTCHAR Ntilde
ENCODING 209
SWIDTH 1000 0
DWIDTH 11 0
BBX 9 13 1 -1
BITMAP
0800
1C00
3E00
7F00
FF80
1C00
1C00
1C00
1C00
1C00
1C00
1C00
1C00
ENDCHAR
STARTCHAR Ograve
ENCODING 210
SWIDTH 833 0
DWIDTH 15 0
BBX 13 13 1 -2
BITMAP
1FC0
7FF0
7FF0
E0F8
FFF8
E3F8
FFF8
6030
7FF0
7FE0
3000
3000
1800
ENDCHAR
STARTCHAR Oacute
ENCODING 211
SWIDTH 944 0
DWIDTH 17 0
BBX 15 11 1 0
BITMAP
FFFE
BFFA
DFF6
EFEE
F7DE
FBBE
F55E
EEEE
DFF6
BFFA
FFFE
ENDCHAR
STARTCHAR Ocircumflex
ENCODING 212
SWIDTH 944 0
DWIDTH 17 0
BBX 15 13 1 -1
BITMAP
1E00
1FE0
19FE
181E
1806
1806
1806
7806
F806
F81E
703E
003E
001C
ENDCHAR
STARTCHAR Odieresis
ENCODING 214
SWIDTH 1000 0
DWIDTH 14 0
BBX 12 15 1 0
BITMAP
1080
1080
0000
0F00
30C0
4020
4020
8010
8010
8010
8010
4020
4020
30C0
0F00
ENDCHAR
STARTCHAR Uacute
ENCODING 218
SWIDTH 1000 0
DWIDTH 18 0
BBX 13 18 0 -4
BITMAP
F800
FC00
FE00
FF00
FF80
FFC0
FFE0
FFF0
FFF8
FFF8
FFF0
FFE0
FFC0
FF80
FF00
FE00
FC00
F800
ENDCHAR
STARTCHAR Ucircumflex
ENCODING 219
SWIDTH 1000 0
DWIDTH 18 0
BBX 9 18 4 -4
BITMAP
8000
4000
2000
1000
0800
0400
0200
0100
0080
0080
0100
0200
0400
0800
1000
2000
4000
8000
ENDCHAR
STARTCHAR Udieresis
ENCODING 220
SWIDTH 1000 0
DWIDTH 13 0
BBX 9 14 2 0
BITMAP
2200
2200
8080
8080
8080
8080
8080
8080
8080
8080
8080
8080
4100
3E00
ENDCHAR
STARTCHAR Yacute
ENCODING 221
SWIDTH 833 0
DWIDTH 15 0
BBX 13 13 1 -1
BITMAP
0700
1DC0
3FE0
7FF0
7DF0
FD98
BC68
F9F8
7FF0
7FF0
3FE0
1DC0
0700
ENDCHAR
STARTCHAR Thorn
ENCODING 222
SWIDTH 722 0
DWIDTH 13 0
BBX 11 13 1 -1
BITMAP
DB60
DB60
0000
FFE0
FFE0
FFE0
FFE0
FFE0
FFE0
FFE0
0000
DB60
DB60
ENDCHAR
STARTCHAR germandbls
ENCODING 223
SWIDTH 1000 0
DWIDTH 11 0
BBX 9 14 1 0
BITMAP
3800
4400
8200
8200
8400
8800
9000
9000
8C00
8300
8080
8080
8080
BF00
ENDCHAR
STARTCHAR agrave
ENCODING 224
SWIDTH 0 0
DWIDTH 0 0
BBX 2 4 -2 -3
BITMAP
40
40
40
80
ENDCHAR
STARTCHAR aacute
ENCODING 225
SWIDTH 1000 0
DWIDTH 12 0
BBX 9 12 2 0
BITMAP
FC00
8200
8100
8100
8200
FE00
8100
8080
8080
8080
8100
FE00
ENDCHAR
STARTCHAR acircumflex
ENCODING 226
SWIDTH 666 0
DWIDTH 12 0
BBX 9 12 2 0
BITMAP
8100
8200
8400
8800
9000
E000
9000
8800
8400
8200
8100
8080
ENDCHAR
STARTCHAR atilde
ENCODING 227
SWIDTH 666 0
DWIDTH 12 0
BBX 11 12 1 0
BITMAP
8020
C060
C060
A0A0
A0A0
9120
9120
8A20
8A20
8420
8020
8020
ENDCHAR
STARTCHAR adieresis
ENCODING 228
SWIDTH 1000 0
DWIDTH 9 0
BBX 7 13 1 0
BITMAP
28
28
00
00
7C
02
02
7E
82
82
82
82
7E
ENDCHAR
STARTCHAR egrave
ENCODING 232
SWIDTH 1000 0
DWIDTH 18 0
BBX 10 15 4 -1
BITMAP
1E00
1E00
7F80
C0C0
8040
8040
8040
8040
8040
8040
8040
8040
8040
C0C0
7F80
ENDCHAR
STARTCHAR eacute
ENCODING 233
SWIDTH 1000 0
DWIDTH 18 0
BBX 10 15 4 -1
BITMAP
1E00
1E00
7F80
C0C0
8040
8040
8040
8040
8040
8040
8040
FFC0
FFC0
FFC0
7F80
ENDCHAR
STARTCHAR ecircumflex
ENCODING 234
SWIDTH 1000 0
DWIDTH 18 0
BBX 10 15 4 -1
BITMAP
1E00
1E00
7F80
C0C0
8040
8040
8040
8040
8040
FFC0
FFC0
FFC0
FFC0
FFC0
7F80
ENDCHAR
STARTCHAR edieresis
ENCODING 235
SWIDTH 1000 0
DWIDTH 18 0
BBX 10 15 4 -1
BITMAP
1E00
1E00
7F80
C0C0
8040
8040
8040
FFC0
FFC0
FFC0
FFC0
FFC0
FFC0
FFC0
7F80
ENDCHAR
STARTCHAR igrave
ENCODING 236
SWIDTH 1000 0
DWIDTH 18 0
BBX 10 15 4 -1
BITMAP
1E00
1E00
7F80
C0C0
8040
FFC0
FFC0
FFC0
FFC0
FFC0
FFC0
FFC0
FFC0
FFC0
7F80
ENDCHAR
STARTCHAR iacute
ENCODING 237
SWIDTH 1000 0
DWIDTH 18 0
BBX 10 15 4 -1
BITMAP
1E00
1E00
7F80
FFC0
FFC0
FFC0
FFC0
FFC0
FFC0
FFC0
FFC0
FFC0
FFC0
FFC0
7F80
ENDCHAR
STARTCHAR ntilde
ENCODING 241
SWIDTH 944 0
DWIDTH 17 0
BBX 15 13 1 -1
BITMAP
0200
0600
0E00
1E42
FE66
FE3C
FE18
FE3C
FE66
1E42
0E00
0600
0200
ENDCHAR
STARTCHAR ograve
ENCODING 242
SWIDTH 1000 0
DWIDTH 17 0
BBX 9 13 1 -1
BITMAP
0200
0600
0E00
1E00
FE00
FE80
FE80
FE80
FE00
1E00
0E00
0600
0200
ENDCHAR
STARTCHAR oacute
ENCODING 243
SWIDTH 1000 0
DWIDTH 17 0
BBX 12 13 1 -1
BITMAP
0200
0600
0E00
1E20
FE10
FE90
FE90
FE90
FE10
1E20
0E00
0600
0200
ENDCHAR
STARTCHAR ocircumflex
ENCODING 244
SWIDTH 1000 0
DWIDTH 17 0
BBX 15 13 1 -1
BITMAP
0208
0604
0E04
1E22
FE12
FE92
FE92
FE92
FE12
1E22
0E04
0604
0208
ENDCHAR
STARTCHAR odieresis
ENCODING 246
SWIDTH 1000 0
DWIDTH 11 0
BBX 9 13 1 0
BITMAP
1400
1400
0000
0000
3E00
4100
8080
8080
8080
8080
8080
4100
3E00
ENDCHAR
STARTCHAR uacute
ENCODING 250
SWIDTH 1000 0
DWIDTH 18 0
BBX 13 18 5 -4
BITMAP
00F8
01F8
03F8
07F8
0FF8
1FF8
3FF8
7FF8
FFF8
FFF8
7FF8
3FF8
1FF8
0FF8
07F8
03F8
01F8
00F8
ENDCHAR
STARTCHAR ucircumflex
ENCODING 251
SWIDTH 1000 0
DWIDTH 18 0
BBX 9 18 5 -4
BITMAP
0080
0100
0200
0400
0800
1000
2000
4000
8000
8000
4000
2000
1000
0800
0400
0200
0100
0080
ENDCHAR
STARTCHAR udieresis
ENCODING 252
SWIDTH 1000 0
DWIDTH 10 0
BBX 8 13 1 0
BITMAP
28
28
00
00
81
81
81
81
81
81
81
41
3F
ENDCHAR
STARTCHAR ydieresis
ENCODING 255
SWIDTH 1000 0
DWIDTH 17 0
BBX 15 14 1 0
BITMAP
8800
8800
D800
5000
7000
2700
0480
0480
0722
0432
042A
002A
0026
0022
ENDCHAR
ENDFONT
